<svg width="44" height="44" viewBox="0 0 44 44" fill="none" xmlns="http://www.w3.org/2000/svg">
<rect x="0.625977" width="43.1031" height="43.1031" rx="21.5515" fill="#1D9BF0"/>
<path d="M18.2337 32.9196C27.7918 32.9196 33.0181 24.9994 33.0181 18.1353C33.0181 17.909 33.0181 17.6827 33.0073 17.4672C34.0202 16.7344 34.9039 15.8185 35.6043 14.7732C34.6776 15.1827 33.6754 15.4629 32.6194 15.5922C33.697 14.9456 34.5159 13.9327 34.9039 12.715C33.9017 13.3077 32.7918 13.7387 31.6065 13.9758C30.6582 12.9629 29.3112 12.3379 27.8134 12.3379C24.947 12.3379 22.6195 14.6655 22.6195 17.5318C22.6195 17.9413 22.6626 18.34 22.7596 18.7171C18.4385 18.5016 14.6131 16.4327 12.0484 13.2862C11.6066 14.0512 11.348 14.9456 11.348 15.8939C11.348 17.6935 12.264 19.2883 13.6648 20.215C12.8135 20.1934 12.0161 19.9564 11.3157 19.5684C11.3157 19.59 11.3157 19.6115 11.3157 19.6331C11.3157 22.1546 13.1045 24.2451 15.4859 24.73C15.0549 24.8486 14.5915 24.9132 14.1174 24.9132C13.7833 24.9132 13.4601 24.8809 13.1368 24.8162C13.7941 26.8852 15.7122 28.383 17.9859 28.4261C16.2079 29.8162 13.9665 30.6459 11.5312 30.6459C11.111 30.6459 10.7015 30.6244 10.292 30.5705C12.5657 32.0576 15.3027 32.9196 18.2337 32.9196Z" fill="white"/>
</svg>
